<svg xmlns="http://www.w3.org/2000/svg" style="display:none" aria-hidden="true"><defs>
<symbol id="ic-flame" viewBox="0 0 24 24" fill="none" stroke="currentColor" stroke-width="1.8" stroke-linecap="round" stroke-linejoin="round"><path d="M12 2c0 6-8 7-8 13a8 8 0 0016 0c0-3-1.5-6-4-8 0 3-1.5 4.5-2 4.5C13.5 9 13 5 12 2z"/></symbol>
<symbol id="ic-chart" viewBox="0 0 24 24" fill="none" stroke="currentColor" stroke-width="1.8" stroke-linecap="round" stroke-linejoin="round"><path d="M3 20h18M8 20V10M12 20V4M16 20V14"/></symbol>
<symbol id="ic-trophy" viewBox="0 0 24 24" fill="none" stroke="currentColor" stroke-width="1.8" stroke-linecap="round" stroke-linejoin="round"><path d="M8 2h8M9 2v7a3 3 0 006 0V2M5 3H3a2 2 0 000 4h2M19 3h2a2 2 0 010 4h-2M12 12v4M8 20h8M10 16h4"/></symbol>
<symbol id="ic-globe" viewBox="0 0 24 24" fill="none" stroke="currentColor" stroke-width="1.8" stroke-linecap="round" stroke-linejoin="round"><circle cx="12" cy="12" r="10"/><path d="M12 2a15.3 15.3 0 010 20M2 12h20"/></symbol>
<symbol id="ic-bolt" viewBox="0 0 24 24" fill="none" stroke="currentColor" stroke-width="1.8" stroke-linecap="round" stroke-linejoin="round"><path d="M13 2L4 14h7l-1 8 9-12h-7l1-8z"/></symbol>
<symbol id="ic-check" viewBox="0 0 24 24" fill="none" stroke="currentColor" stroke-width="2" stroke-linecap="round" stroke-linejoin="round"><path d="M20 6L9 17l-5-5"/></symbol>
<symbol id="ic-x" viewBox="0 0 24 24" fill="none" stroke="currentColor" stroke-width="2" stroke-linecap="round" stroke-linejoin="round"><path d="M18 6L6 18M6 6l12 12"/></symbol>
<symbol id="ic-eye" viewBox="0 0 24 24" fill="none" stroke="currentColor" stroke-width="1.8" stroke-linecap="round" stroke-linejoin="round"><path d="M1 12s4-8 11-8 11 8 11 8-4 8-11 8-11-8-11-8z"/><circle cx="12" cy="12" r="3"/></symbol>
<symbol id="ic-clock" viewBox="0 0 24 24" fill="none" stroke="currentColor" stroke-width="1.8" stroke-linecap="round" stroke-linejoin="round"><circle cx="12" cy="12" r="10"/><path d="M12 6v6l4 2"/></symbol>
<symbol id="ic-vol" viewBox="0 0 24 24" fill="none" stroke="currentColor" stroke-width="1.8" stroke-linecap="round" stroke-linejoin="round"><path d="M11 5L6 9H2v6h4l5 4V5z"/><path d="M19.07 4.93a10 10 0 010 14.14M15.54 8.46a5 5 0 010 7.07"/></symbol>
<symbol id="ic-vol-off" viewBox="0 0 24 24" fill="none" stroke="currentColor" stroke-width="1.8" stroke-linecap="round" stroke-linejoin="round"><path d="M11 5L6 9H2v6h4l5 4V5z"/><line x1="23" y1="9" x2="17" y2="15"/><line x1="17" y1="9" x2="23" y2="15"/></symbol>
<symbol id="ic-gear" viewBox="0 0 24 24" fill="none" stroke="currentColor" stroke-width="1.8" stroke-linecap="round" stroke-linejoin="round"><circle cx="12" cy="12" r="3"/><path d="M19.4 15a1.65 1.65 0 00.33 1.82l.06.06a2 2 0 010 2.83 2 2 0 01-2.83 0l-.06-.06a1.65 1.65 0 00-1.82-.33 1.65 1.65 0 00-1 1.51V21a2 2 0 01-4 0v-.09A1.65 1.65 0 009 19.4a1.65 1.65 0 00-1.82.33l-.06.06a2 2 0 01-2.83-2.83l.06-.06A1.65 1.65 0 004.68 15a1.65 1.65 0 00-1.51-1H3a2 2 0 010-4h.09A1.65 1.65 0 004.6 9a1.65 1.65 0 00-.33-1.82l-.06-.06a2 2 0 012.83-2.83l.06.06A1.65 1.65 0 009 4.68a1.65 1.65 0 001-1.51V3a2 2 0 014 0v.09a1.65 1.65 0 001 1.51 1.65 1.65 0 001.82-.33l.06-.06a2 2 0 012.83 2.83l-.06.06A1.65 1.65 0 0019.4 9a1.65 1.65 0 001.51 1H21a2 2 0 010 4h-.09a1.65 1.65 0 00-1.51 1z"/></symbol>
<symbol id="ic-mic" viewBox="0 0 24 24" fill="none" stroke="currentColor" stroke-width="1.8" stroke-linecap="round" stroke-linejoin="round"><path d="M12 1a3 3 0 00-3 3v8a3 3 0 006 0V4a3 3 0 00-3-3z"/><path d="M19 10v2a7 7 0 01-14 0v-2M12 19v4M8 23h8"/></symbol>
<symbol id="ic-mic-off" viewBox="0 0 24 24" fill="none" stroke="currentColor" stroke-width="1.8" stroke-linecap="round" stroke-linejoin="round"><line x1="1" y1="1" x2="23" y2="23"/><path d="M9 9v3a3 3 0 005.12 2.12M15 9.34V4a3 3 0 00-5.94-.6M17 16.95A7 7 0 015 12v-2m14 0v2a7 7 0 01-.11 1.23M12 19v4M8 23h8"/></symbol>
<symbol id="ic-cam" viewBox="0 0 24 24" fill="none" stroke="currentColor" stroke-width="1.8" stroke-linecap="round" stroke-linejoin="round"><path d="M23 7l-7 5 7 5V7z"/><rect x="1" y="5" width="15" height="14" rx="2" ry="2"/></symbol>
<symbol id="ic-exit" viewBox="0 0 24 24" fill="none" stroke="currentColor" stroke-width="1.8" stroke-linecap="round" stroke-linejoin="round"><path d="M9 21H5a2 2 0 01-2-2V5a2 2 0 012-2h4M16 17l5-5-5-5M21 12H9"/></symbol>
<symbol id="ic-warn" viewBox="0 0 24 24" fill="none" stroke="currentColor" stroke-width="1.8" stroke-linecap="round" stroke-linejoin="round"><path d="M10.29 3.86L1.82 18a2 2 0 001.71 3h16.94a2 2 0 001.71-3L13.71 3.86a2 2 0 00-3.42 0z"/><line x1="12" y1="9" x2="12" y2="13"/><line x1="12" y1="17" x2="12.01" y2="17"/></symbol>
<symbol id="ic-ai" viewBox="0 0 24 24" fill="none" stroke="currentColor" stroke-width="1.8" stroke-linecap="round" stroke-linejoin="round"><rect x="3" y="8" width="18" height="12" rx="2"/><path d="M12 8V4M8 4h8M7 12h.01M17 12h.01M9 16h6"/></symbol>
<symbol id="ic-pin" viewBox="0 0 24 24" fill="none" stroke="currentColor" stroke-width="1.8" stroke-linecap="round" stroke-linejoin="round"><path d="M21 10c0 7-9 13-9 13S3 17 3 10a9 9 0 0118 0z"/><circle cx="12" cy="10" r="3"/></symbol>
<symbol id="ic-speech" viewBox="0 0 24 24" fill="none" stroke="currentColor" stroke-width="1.8" stroke-linecap="round" stroke-linejoin="round"><path d="M21 15a2 2 0 01-2 2H7l-4 4V5a2 2 0 012-2h14a2 2 0 012 2z"/></symbol>
<symbol id="ic-back" viewBox="0 0 24 24" fill="none" stroke="currentColor" stroke-width="2" stroke-linecap="round" stroke-linejoin="round"><path d="M19 12H5M12 19l-7-7 7-7"/></symbol>
<symbol id="ic-trend" viewBox="0 0 24 24" fill="none" stroke="currentColor" stroke-width="2" stroke-linecap="round" stroke-linejoin="round"><polyline points="23 6 13.5 15.5 8.5 10.5 1 18"/><polyline points="17 6 23 6 23 12"/></symbol>
<symbol id="ic-server" viewBox="0 0 24 24" fill="none" stroke="currentColor" stroke-width="1.8" stroke-linecap="round" stroke-linejoin="round"><rect x="2" y="2" width="20" height="8" rx="2"/><rect x="2" y="14" width="20" height="8" rx="2"/><line x1="6" y1="6" x2="6.01" y2="6"/><line x1="6" y1="18" x2="6.01" y2="18"/></symbol>
<symbol id="ic-card" viewBox="0 0 24 24" fill="none" stroke="currentColor" stroke-width="1.8" stroke-linecap="round" stroke-linejoin="round"><rect x="1" y="4" width="22" height="16" rx="2"/><line x1="1" y1="10" x2="23" y2="10"/></symbol>
<symbol id="ic-bank" viewBox="0 0 24 24" fill="none" stroke="currentColor" stroke-width="1.8" stroke-linecap="round" stroke-linejoin="round"><path d="M3 9l9-7 9 7v11a2 2 0 01-2 2H5a2 2 0 01-2-2z"/><polyline points="9 22 9 12 15 12 15 22"/></symbol>
<symbol id="ic-wallet" viewBox="0 0 24 24" fill="none" stroke="currentColor" stroke-width="1.8" stroke-linecap="round" stroke-linejoin="round"><path d="M20 12V7H5a2 2 0 010-4h14v4"/><path d="M20 12a2 2 0 010 4H5a2 2 0 01-2-2V5"/></symbol>
<symbol id="ic-coins" viewBox="0 0 24 24" fill="none" stroke="currentColor" stroke-width="1.8" stroke-linecap="round" stroke-linejoin="round"><circle cx="8" cy="8" r="6"/><path d="M18.09 10.37A6 6 0 1110.34 18"/><path d="M7 6h1v4"/></symbol>
<symbol id="ic-dice" viewBox="0 0 24 24" fill="none" stroke="currentColor" stroke-width="1.8" stroke-linecap="round" stroke-linejoin="round"><rect x="2" y="2" width="20" height="20" rx="3"/><circle cx="8" cy="8" r="1.2" fill="currentColor"/><circle cx="16" cy="8" r="1.2" fill="currentColor"/><circle cx="8" cy="16" r="1.2" fill="currentColor"/><circle cx="16" cy="16" r="1.2" fill="currentColor"/><circle cx="12" cy="12" r="1.2" fill="currentColor"/></symbol>
</defs></svg>
